<?xml version="1.0" encoding="UTF-8"?>
<svg id="logo" xmlns="http://www.w3.org/2000/svg" version="1.1" viewBox="0 0 200.9 200.9">
  <!-- Generator: Adobe Illustrator 29.3.0, SVG Export Plug-In . SVG Version: 2.1.0 Build 146)  -->
  <defs>
    <style>
    .st0, .st1 {
  stroke: currentColor;
  fill: none;
}

.st2 {
  fill: none;
}

.st2, .st1 {
  stroke: currentColor;
  stroke-miterlimit: 10;
  stroke-width: .2px;
}
    </style>
  </defs>
  <g>
    <path class="st2" d="M100.4,3.5C46.9,3.5,3.4,46.9,3.5,100.5c0,53.6,43.4,97,97,97,53.6,0,97-43.4,97-97,0-53.5-43.5-96.9-97-97Z"/>
    <path class="st2" d="M5.1,100.5c0-52.7,42.7-95.4,95.4-95.4,52.7,0,95.3,42.7,95.4,95.4,0,52.7-42.7,95.4-95.4,95.4-52.7,0-95.4-42.7-95.4-95.4Z"/>
    <path class="st2" d="M6.7,100.5c0-51.8,42-93.8,93.8-93.8,51.8,0,93.7,42,93.8,93.8,0,51.8-42,93.8-93.8,93.8-51.8,0-93.8-42-93.8-93.8Z"/>
    <path class="st2" d="M8.3,100.5c0-50.9,41.3-92.2,92.2-92.2,50.9,0,92.1,41.3,92.2,92.2,0,50.9-41.3,92.2-92.2,92.2-50.9,0-92.2-41.3-92.2-92.2Z"/>
    <path class="st2" d="M9.9,100.5c0-50,40.5-90.6,90.6-90.6,50,0,90.5,40.6,90.6,90.6,0,50-40.5,90.6-90.6,90.6-50,0-90.6-40.5-90.6-90.6Z"/>
    <path class="st2" d="M11.5,100.5c0-49.1,39.8-89,88.9-89,49.1,0,88.9,39.8,89,88.9,0,49.1-39.8,89-88.9,89-49.1,0-89-39.8-89-88.9Z"/>
    <path class="st2" d="M13.1,100.5c0-48.2,39.1-87.3,87.3-87.4,48.2,0,87.3,39.1,87.4,87.3,0,48.2-39.1,87.3-87.3,87.4-48.2,0-87.3-39.1-87.4-87.3Z"/>
    <path class="st2" d="M14.7,100.5c0-47.3,38.4-85.7,85.7-85.7,47.3,0,85.7,38.4,85.7,85.7,0,47.3-38.4,85.7-85.7,85.7-47.3,0-85.7-38.4-85.7-85.7Z"/>
    <path class="st2" d="M16.3,100.5c0-46.5,37.7-84.1,84.1-84.1,46.4,0,84.1,37.7,84.1,84.1,0,46.5-37.7,84.1-84.1,84.1-46.5,0-84.1-37.7-84.1-84.1Z"/>
    <path class="st2" d="M17.9,100.5c0-45.6,36.9-82.5,82.5-82.5,45.6,0,82.5,37,82.5,82.5,0,45.6-36.9,82.5-82.5,82.5-45.6,0-82.5-36.9-82.5-82.5Z"/>
    <path class="st2" d="M19.5,100.5c0-44.7,36.2-80.9,80.9-80.9,44.7,0,80.9,36.2,80.9,80.9,0,44.7-36.2,80.9-80.9,80.9-44.7,0-80.9-36.2-80.9-80.9Z"/>
    <path class="st2" d="M21.2,100.5c0-43.8,35.5-79.3,79.3-79.3,43.8,0,79.3,35.5,79.3,79.3,0,43.8-35.5,79.3-79.3,79.3-43.8,0-79.3-35.5-79.3-79.3Z"/>
    <path class="st2" d="M22.8,100.5c0-42.9,34.8-77.7,77.7-77.7,42.9,0,77.6,34.8,77.7,77.7,0,42.9-34.8,77.7-77.7,77.7-42.9,0-77.7-34.8-77.7-77.7Z"/>
    <path class="st2" d="M24.4,100.5c0-42,34.1-76.1,76.1-76.1,42,0,76,34.1,76.1,76.1,0,42-34.1,76.1-76.1,76.1-42,0-76.1-34.1-76.1-76.1Z"/>
    <path class="st2" d="M26,100.5c0-41.1,33.3-74.5,74.5-74.5,41.1,0,74.4,33.3,74.5,74.5,0,41.1-33.3,74.5-74.5,74.5-41.1,0-74.5-33.3-74.5-74.5Z"/>
    <path class="st2" d="M27.6,100.5c0-40.2,32.6-72.9,72.8-72.9,40.2,0,72.8,32.6,72.9,72.8,0,40.2-32.6,72.9-72.8,72.9-40.2,0-72.9-32.6-72.9-72.8Z"/>
    <path class="st2" d="M29.2,100.5c0-39.3,31.9-71.2,71.2-71.3,39.3,0,71.2,31.9,71.3,71.2,0,39.3-31.9,71.2-71.2,71.3-39.3,0-71.2-31.9-71.3-71.2Z"/>
    <path class="st2" d="M30.8,100.5c0-38.5,31.2-69.6,69.6-69.6,38.4,0,69.6,31.2,69.6,69.6,0,38.5-31.2,69.6-69.6,69.6-38.5,0-69.6-31.2-69.6-69.6Z"/>
    <path class="st2" d="M32.4,100.5c0-37.6,30.4-68,68-68,37.6,0,68,30.5,68,68,0,37.6-30.4,68-68,68-37.6,0-68-30.4-68-68Z"/>
    <path class="st2" d="M34,100.5c0-36.7,29.7-66.4,66.4-66.4,36.7,0,66.4,29.7,66.4,66.4,0,36.7-29.7,66.4-66.4,66.4-36.7,0-66.4-29.7-66.4-66.4Z"/>
    <path class="st2" d="M35.6,100.5c0-35.8,29-64.8,64.8-64.8,35.8,0,64.8,29,64.8,64.8,0,35.8-29,64.8-64.8,64.8-35.8,0-64.8-29-64.8-64.8Z"/>
    <path class="st2" d="M37.3,100.5c0-34.9,28.3-63.2,63.2-63.2,34.9,0,63.2,28.3,63.2,63.2,0,34.9-28.3,63.2-63.2,63.2-34.9,0-63.2-28.3-63.2-63.2Z"/>
    <path class="st2" d="M38.9,100.5c0-34,27.6-61.6,61.6-61.6,34,0,61.6,27.6,61.6,61.6,0,34-27.6,61.6-61.6,61.6-34,0-61.6-27.6-61.6-61.6Z"/>
    <path class="st2" d="M40.5,100.5c0-33.1,26.8-60,60-60,33.1,0,60,26.9,60,60,0,33.1-26.8,60-60,60-33.1,0-60-26.8-60-60Z"/>
    <path class="st2" d="M42.1,100.5c0-32.2,26.1-58.4,58.4-58.4,32.2,0,58.3,26.1,58.4,58.4,0,32.2-26.1,58.4-58.4,58.4-32.2,0-58.4-26.1-58.4-58.4Z"/>
    <path class="st2" d="M43.7,100.5c0-31.3,25.4-56.8,56.8-56.8,31.3,0,56.7,25.4,56.8,56.8,0,31.3-25.4,56.8-56.8,56.8-31.3,0-56.8-25.4-56.8-56.8Z"/>
    <path class="st2" d="M45.3,100.5c0-30.5,24.7-55.1,55.1-55.2,30.4,0,55.1,24.7,55.2,55.1,0,30.5-24.7,55.1-55.1,55.2-30.5,0-55.1-24.7-55.2-55.1Z"/>
    <path class="st2" d="M46.9,100.5c0-29.6,24-53.5,53.5-53.5,29.6,0,53.5,24,53.5,53.5,0,29.6-24,53.5-53.5,53.5-29.6,0-53.5-24-53.5-53.5Z"/>
    <path class="st2" d="M48.5,100.4c0-28.7,23.2-51.9,51.9-51.9,28.7,0,51.9,23.3,51.9,51.9,0,28.7-23.2,51.9-51.9,51.9-28.7,0-51.9-23.2-51.9-51.9Z"/>
    <path class="st2" d="M50.1,100.4c0-27.8,22.5-50.3,50.3-50.3,27.8,0,50.3,22.5,50.3,50.3,0,27.8-22.5,50.3-50.3,50.3-27.8,0-50.3-22.5-50.3-50.3Z"/>
    <path class="st2" d="M51.7,100.4c0-26.9,21.8-48.7,48.7-48.7,26.9,0,48.7,21.8,48.7,48.7,0,26.9-21.8,48.7-48.7,48.7-26.9,0-48.7-21.8-48.7-48.7Z"/>
    <path class="st2" d="M53.3,100.4c0-26,21.1-47.1,47.1-47.1,26,0,47.1,21.1,47.1,47.1,0,26-21.1,47.1-47.1,47.1-26,0-47.1-21.1-47.1-47.1Z"/>
    <path class="st2" d="M55,100.4c0-25.1,20.4-45.5,45.5-45.5,25.1,0,45.5,20.4,45.5,45.5,0,25.1-20.4,45.5-45.5,45.5-25.1,0-45.5-20.4-45.5-45.5Z"/>
    <path class="st2" d="M56.6,100.4c0-24.2,19.6-43.9,43.9-43.9,24.2,0,43.9,19.6,43.9,43.9,0,24.2-19.6,43.9-43.9,43.9-24.2,0-43.9-19.6-43.9-43.9Z"/>
    <path class="st2" d="M58.2,100.4c0-23.3,18.9-42.3,42.3-42.3,23.3,0,42.3,18.9,42.3,42.3,0,23.3-18.9,42.3-42.3,42.3-23.3,0-42.3-18.9-42.3-42.3Z"/>
    <path class="st2" d="M59.8,100.4c0-22.5,18.2-40.7,40.7-40.7,22.5,0,40.7,18.2,40.7,40.7,0,22.5-18.2,40.7-40.7,40.7-22.5,0-40.7-18.2-40.7-40.7Z"/>
    <path class="st2" d="M61.4,100.4c0-21.6,17.5-39,39-39.1,21.6,0,39,17.5,39.1,39,0,21.6-17.5,39-39,39.1-21.6,0-39-17.5-39.1-39Z"/>
    <path class="st2" d="M63,100.4c0-20.7,16.8-37.4,37.4-37.4,20.7,0,37.4,16.8,37.4,37.4,0,20.7-16.8,37.4-37.4,37.4-20.7,0-37.4-16.8-37.4-37.4Z"/>
    <path class="st2" d="M64.6,100.4c0-19.8,16-35.8,35.8-35.8,19.8,0,35.8,16,35.8,35.8,0,19.8-16,35.8-35.8,35.8-19.8,0-35.8-16-35.8-35.8Z"/>
    <path class="st2" d="M66.2,100.4c0-18.9,15.3-34.2,34.2-34.2,18.9,0,34.2,15.3,34.2,34.2,0,18.9-15.3,34.2-34.2,34.2-18.9,0-34.2-15.3-34.2-34.2Z"/>
    <path class="st2" d="M67.8,100.4c0-18,14.6-32.6,32.6-32.6,18,0,32.6,14.6,32.6,32.6,0,18-14.6,32.6-32.6,32.6-18,0-32.6-14.6-32.6-32.6Z"/>
    <circle id="Ellipse_331" class="st2" cx="100.4" cy="100.4" r="31"/>
  </g>
  <circle id="Ellipse_330" class="st0" cx="100.4" cy="100.4" r="4"/>
  <circle class="st1" cx="100.5" cy="100.5" r="3.7"/>
</svg>
